<svg id="Capa_1" data-name="Capa 1" xmlns="http://www.w3.org/2000/svg" xmlns:xlink="http://www.w3.org/1999/xlink" viewBox="0 0 160.02 125.27"><defs><style>.cls-1{fill:none;stroke-miterlimit:10;stroke-width:3px;stroke:url(#Degradado_sin_nombre_6);}.cls-2{fill:url(#Degradado_sin_nombre_6-2);}.cls-3{fill:url(#Degradado_sin_nombre_6-3);}.cls-4{fill:url(#Degradado_sin_nombre_6-4);}.cls-5{fill:url(#Degradado_sin_nombre_6-5);}.cls-6{fill:url(#Degradado_sin_nombre_6-6);}.cls-7{fill:url(#Degradado_sin_nombre_6-7);}.cls-8{fill:url(#Degradado_sin_nombre_6-8);}.cls-9{fill:url(#Degradado_sin_nombre_6-9);}.cls-10{fill:url(#Degradado_sin_nombre_6-10);}.cls-11{fill:url(#Degradado_sin_nombre_6-11);}.cls-12{fill:url(#Degradado_sin_nombre_6-12);}.cls-13{fill:url(#Degradado_sin_nombre_6-13);}.cls-14{fill:url(#Degradado_sin_nombre_6-14);}.cls-15{fill:url(#Degradado_sin_nombre_6-15);}.cls-16{fill:url(#Degradado_sin_nombre_6-16);}.cls-17{fill:url(#Degradado_sin_nombre_6-17);}.cls-18{fill:url(#Degradado_sin_nombre_6-18);}.cls-19{fill:url(#Degradado_sin_nombre_6-19);}.cls-20{fill:url(#Degradado_sin_nombre_6-20);}.cls-21{fill:url(#Degradado_sin_nombre_6-21);}.cls-22{fill:url(#Degradado_sin_nombre_6-22);}.cls-23{fill:url(#Degradado_sin_nombre_6-23);}.cls-24{fill:url(#Degradado_sin_nombre_6-24);}.cls-25{fill:url(#Degradado_sin_nombre_6-25);}.cls-26{fill:url(#Degradado_sin_nombre_6-26);}.cls-27{fill:url(#Degradado_sin_nombre_6-27);}.cls-28{fill:url(#Degradado_sin_nombre_6-28);}.cls-29{fill:url(#Degradado_sin_nombre_6-29);}.cls-30{fill:url(#Degradado_sin_nombre_6-30);}.cls-31{fill:url(#Degradado_sin_nombre_6-31);}.cls-32{fill:url(#Degradado_sin_nombre_6-32);}.cls-33{fill:url(#Degradado_sin_nombre_6-33);}.cls-34{fill:url(#Degradado_sin_nombre_6-34);}</style><linearGradient id="Degradado_sin_nombre_6" y1="62.64" x2="160.02" y2="62.64" gradientUnits="userSpaceOnUse"><stop offset="0.31" stop-color="#22c590"/><stop offset="0.43" stop-color="#27c891"/><stop offset="0.57" stop-color="#36d092"/><stop offset="0.73" stop-color="#4fde95"/><stop offset="0.9" stop-color="#71f298"/><stop offset="1" stop-color="#89ff9b"/></linearGradient><linearGradient id="Degradado_sin_nombre_6-2" x1="909.83" y1="433.7" x2="909.83" y2="503.92" xlink:href="#Degradado_sin_nombre_6"/><linearGradient id="Degradado_sin_nombre_6-3" x1="921.63" y1="433.7" x2="921.63" y2="503.92" xlink:href="#Degradado_sin_nombre_6"/><linearGradient id="Degradado_sin_nombre_6-4" x1="940.35" y1="433.7" x2="940.35" y2="503.92" xlink:href="#Degradado_sin_nombre_6"/><linearGradient id="Degradado_sin_nombre_6-5" x1="954.42" y1="433.7" x2="954.42" y2="503.92" xlink:href="#Degradado_sin_nombre_6"/><linearGradient id="Degradado_sin_nombre_6-6" x1="963.06" y1="433.7" x2="963.06" y2="503.92" xlink:href="#Degradado_sin_nombre_6"/><linearGradient id="Degradado_sin_nombre_6-7" x1="979.63" y1="433.7" x2="979.63" y2="503.92" xlink:href="#Degradado_sin_nombre_6"/><linearGradient id="Degradado_sin_nombre_6-8" x1="1000.91" y1="433.7" x2="1000.91" y2="503.92" xlink:href="#Degradado_sin_nombre_6"/><linearGradient id="Degradado_sin_nombre_6-9" x1="1014.89" y1="433.7" x2="1014.89" y2="503.92" xlink:href="#Degradado_sin_nombre_6"/><linearGradient id="Degradado_sin_nombre_6-10" x1="901.99" y1="433.7" x2="901.99" y2="503.92" xlink:href="#Degradado_sin_nombre_6"/><linearGradient id="Degradado_sin_nombre_6-11" x1="919.21" y1="433.7" x2="919.21" y2="503.92" xlink:href="#Degradado_sin_nombre_6"/><linearGradient id="Degradado_sin_nombre_6-12" x1="935.38" y1="433.7" x2="935.38" y2="503.92" xlink:href="#Degradado_sin_nombre_6"/><linearGradient id="Degradado_sin_nombre_6-13" x1="951.08" y1="433.7" x2="951.08" y2="503.92" xlink:href="#Degradado_sin_nombre_6"/><linearGradient id="Degradado_sin_nombre_6-14" x1="974.69" y1="433.7" x2="974.69" y2="503.92" xlink:href="#Degradado_sin_nombre_6"/><linearGradient id="Degradado_sin_nombre_6-15" x1="991.9" y1="433.7" x2="991.9" y2="503.92" xlink:href="#Degradado_sin_nombre_6"/><linearGradient id="Degradado_sin_nombre_6-16" x1="1006.63" y1="433.7" x2="1006.63" y2="503.92" xlink:href="#Degradado_sin_nombre_6"/><linearGradient id="Degradado_sin_nombre_6-17" x1="1019.55" y1="433.7" x2="1019.55" y2="503.92" xlink:href="#Degradado_sin_nombre_6"/><linearGradient id="Degradado_sin_nombre_6-18" x1="900.43" y1="433.7" x2="900.43" y2="503.92" xlink:href="#Degradado_sin_nombre_6"/><linearGradient id="Degradado_sin_nombre_6-19" x1="914.58" y1="433.7" x2="914.58" y2="503.92" xlink:href="#Degradado_sin_nombre_6"/><linearGradient id="Degradado_sin_nombre_6-20" x1="936.62" y1="433.7" x2="936.62" y2="503.92" xlink:href="#Degradado_sin_nombre_6"/><linearGradient id="Degradado_sin_nombre_6-21" x1="952.31" y1="433.7" x2="952.31" y2="503.92" xlink:href="#Degradado_sin_nombre_6"/><linearGradient id="Degradado_sin_nombre_6-22" x1="969.05" y1="433.7" x2="969.05" y2="503.92" xlink:href="#Degradado_sin_nombre_6"/><linearGradient id="Degradado_sin_nombre_6-23" x1="983.05" y1="433.7" x2="983.05" y2="503.92" xlink:href="#Degradado_sin_nombre_6"/><linearGradient id="Degradado_sin_nombre_6-24" x1="991.69" y1="433.7" x2="991.69" y2="503.92" xlink:href="#Degradado_sin_nombre_6"/><linearGradient id="Degradado_sin_nombre_6-25" x1="1002.42" y1="433.7" x2="1002.42" y2="503.92" xlink:href="#Degradado_sin_nombre_6"/><linearGradient id="Degradado_sin_nombre_6-26" x1="1018.12" y1="433.7" x2="1018.12" y2="503.92" xlink:href="#Degradado_sin_nombre_6"/><linearGradient id="Degradado_sin_nombre_6-27" x1="911.15" y1="433.7" x2="911.15" y2="503.92" xlink:href="#Degradado_sin_nombre_6"/><linearGradient id="Degradado_sin_nombre_6-28" x1="928.28" y1="433.7" x2="928.28" y2="503.92" xlink:href="#Degradado_sin_nombre_6"/><linearGradient id="Degradado_sin_nombre_6-29" x1="942.26" y1="433.7" x2="942.26" y2="503.92" xlink:href="#Degradado_sin_nombre_6"/><linearGradient id="Degradado_sin_nombre_6-30" x1="953.2" y1="433.7" x2="953.2" y2="503.92" xlink:href="#Degradado_sin_nombre_6"/><linearGradient id="Degradado_sin_nombre_6-31" x1="966.45" y1="433.7" x2="966.45" y2="503.92" xlink:href="#Degradado_sin_nombre_6"/><linearGradient id="Degradado_sin_nombre_6-32" x1="983.2" y1="433.7" x2="983.2" y2="503.92" xlink:href="#Degradado_sin_nombre_6"/><linearGradient id="Degradado_sin_nombre_6-33" x1="996.58" y1="433.7" x2="996.58" y2="503.92" xlink:href="#Degradado_sin_nombre_6"/><linearGradient id="Degradado_sin_nombre_6-34" x1="1010.39" y1="433.7" x2="1010.39" y2="503.92" xlink:href="#Degradado_sin_nombre_6"/></defs><rect class="cls-1" x="1.5" y="1.5" width="157.02" height="122.27"/><path class="cls-2" d="M909.91,430.94a7.61,7.61,0,0,1,5.75,2.21,6.68,6.68,0,0,1,1.55,2.75,10.07,10.07,0,0,1,.34,3.66H907.06a3.15,3.15,0,0,0,1.09,1.65,2.78,2.78,0,0,0,1.76.6,2.89,2.89,0,0,0,2.69-1.69l4.1,2a6.84,6.84,0,0,1-2.83,2.57,8.67,8.67,0,0,1-4,.91,8.21,8.21,0,0,1-5.49-1.88,6.39,6.39,0,0,1-1.73-2.34,8,8,0,0,1,0-6.19,6.43,6.43,0,0,1,1.73-2.35A8.33,8.33,0,0,1,909.91,430.94Zm1.85,4.35a3.22,3.22,0,0,0-3.69,0,3.08,3.08,0,0,0-1,1.67h5.75A3,3,0,0,0,911.76,435.29Z" transform="translate(-880.21 -412.48)"/><path class="cls-3" d="M919.22,445.35V426h4.83v19.32Z" transform="translate(-880.21 -412.48)"/><path class="cls-4" d="M941.71,445.58a6.66,6.66,0,0,1-2.71-.5,3.32,3.32,0,0,1-1.66-1.42v6.84h-4.83V431.19h4.6l.23,1.68a3.22,3.22,0,0,1,1.63-1.43,6.88,6.88,0,0,1,2.74-.5,6,6,0,0,1,4.63,2.05,8.41,8.41,0,0,1,0,10.55A6,6,0,0,1,941.71,445.58Zm.81-9.68a3.09,3.09,0,0,0-4.32,0,3.3,3.3,0,0,0-.86,2.37,3.24,3.24,0,0,0,.86,2.35,3.07,3.07,0,0,0,4.32,0,3.26,3.26,0,0,0,.85-2.35A3.3,3.3,0,0,0,942.52,435.9Z" transform="translate(-880.21 -412.48)"/><path class="cls-5" d="M949.83,445.35V431.19h4.61l.22,1.57Q955.83,431,959,431V435q-4.35,0-4.35,3.25v7.08Z" transform="translate(-880.21 -412.48)"/><path class="cls-6" d="M963.06,429.74a2.62,2.62,0,0,1-2-.83,2.74,2.74,0,0,1,0-3.91,2.68,2.68,0,0,1,2-.81,2.73,2.73,0,0,1,2,.81,2.79,2.79,0,0,1-2,4.74Zm-2.41,15.61V431.19h4.82v14.16Z" transform="translate(-880.21 -412.48)"/><path class="cls-7" d="M986.33,430.94a5.31,5.31,0,0,1,2.89.7,4.21,4.21,0,0,1,1.66,2.08,12.45,12.45,0,0,1,.67,4.55v7.08h-4.83v-7.08c0-2.17-.73-3.25-2.19-3.25a2.15,2.15,0,0,0-1.82.86,3.82,3.82,0,0,0-.65,2.39v7.08h-4.83v-7.08c0-2.17-.73-3.25-2.2-3.25a2.19,2.19,0,0,0-1.84.86,3.88,3.88,0,0,0-.65,2.39v7.08h-4.83V431.19h4.6l.23,1.68c.69-1.29,2.11-1.93,4.28-1.93s3.82.93,4.56,2.79A5.13,5.13,0,0,1,986.33,430.94Z" transform="translate(-880.21 -412.48)"/><path class="cls-8" d="M1001,430.94a7.61,7.61,0,0,1,5.75,2.21,6.68,6.68,0,0,1,1.55,2.75,9.86,9.86,0,0,1,.33,3.66H998.14a3.15,3.15,0,0,0,1.09,1.65,2.78,2.78,0,0,0,1.76.6,2.9,2.9,0,0,0,2.69-1.69l4.1,2a6.84,6.84,0,0,1-2.83,2.57,8.67,8.67,0,0,1-4,.91,8.21,8.21,0,0,1-5.49-1.88,6.28,6.28,0,0,1-1.73-2.34,8,8,0,0,1,0-6.19,6.32,6.32,0,0,1,1.73-2.35A8.33,8.33,0,0,1,1001,430.94Zm1.85,4.35a3.24,3.24,0,0,0-3.7,0,3.13,3.13,0,0,0-1,1.67h5.75A3,3,0,0,0,1002.84,435.29Z" transform="translate(-880.21 -412.48)"/><path class="cls-9" d="M1010.3,445.35V431.19h4.6l.23,1.57c.78-1.2,2.22-1.8,4.35-1.81V435q-4.35,0-4.35,3.25v7.08Z" transform="translate(-880.21 -412.48)"/><path class="cls-10" d="M903.35,471a6.66,6.66,0,0,1-2.71-.5,3.32,3.32,0,0,1-1.66-1.42v6.84h-4.83V456.59h4.6l.23,1.68a3.22,3.22,0,0,1,1.63-1.43,6.71,6.71,0,0,1,2.74-.5,6,6,0,0,1,4.63,2.05,7.53,7.53,0,0,1,1.86,5.28,7.45,7.45,0,0,1-1.86,5.26A6,6,0,0,1,903.35,471Zm.81-9.68a3.09,3.09,0,0,0-4.32,0,3.26,3.26,0,0,0-.86,2.37,3.2,3.2,0,0,0,.86,2.35,3.07,3.07,0,0,0,4.32,0,3.26,3.26,0,0,0,.85-2.35A3.3,3.3,0,0,0,904.16,461.3Z" transform="translate(-880.21 -412.48)"/><path class="cls-11" d="M917.85,456.34a6.65,6.65,0,0,1,2.71.51,3.41,3.41,0,0,1,1.66,1.42l.23-1.68h4.6v14.16h-4.6l-.23-1.69a3.17,3.17,0,0,1-1.63,1.43,6.88,6.88,0,0,1-2.74.49,6,6,0,0,1-4.63-2.05,7.45,7.45,0,0,1-1.86-5.26,7.53,7.53,0,0,1,1.86-5.28A6,6,0,0,1,917.85,456.34Zm-.79,9.68a2.86,2.86,0,0,0,2.15.89,2.9,2.9,0,0,0,2.15-.89,3.24,3.24,0,0,0,.86-2.35,3.3,3.3,0,0,0-.86-2.37,2.93,2.93,0,0,0-2.15-.88,2.86,2.86,0,0,0-2.15.88,3.27,3.27,0,0,0-.87,2.37A3.2,3.2,0,0,0,917.06,466Z" transform="translate(-880.21 -412.48)"/><path class="cls-12" d="M941.72,460.6l-4.82.25a1.43,1.43,0,0,0-.48-.9,1.48,1.48,0,0,0-1-.37,2.15,2.15,0,0,0-1.15.26.84.84,0,0,0-.41.76.82.82,0,0,0,.44.72,5.14,5.14,0,0,0,1.36.49c1,.24,1.78.45,2.41.64a12.26,12.26,0,0,1,1.81.68,4.5,4.5,0,0,1,1.32.81,3,3,0,0,1,.91,2.43,4.13,4.13,0,0,1-1.77,3.43,8.52,8.52,0,0,1-4.88,1.17,8.68,8.68,0,0,1-4.9-1.18,4,4,0,0,1-1.84-3.36l4.81-.35a1.67,1.67,0,0,0,.62,1.13,2,2,0,0,0,1.31.43,2.53,2.53,0,0,0,1.3-.3.93.93,0,0,0,.49-.83q0-.56-.78-1a7.66,7.66,0,0,0-2-.7c-.93-.23-1.54-.39-1.81-.47a11.9,11.9,0,0,1-1.39-.47,4.4,4.4,0,0,1-1.07-.57,3.18,3.18,0,0,1-1.22-2.84,3.41,3.41,0,0,1,1.69-3.08,9.11,9.11,0,0,1,4.81-1.05,7.9,7.9,0,0,1,4.51,1.1A3.74,3.74,0,0,1,941.72,460.6Z" transform="translate(-880.21 -412.48)"/><path class="cls-13" d="M954.07,470.48a9.55,9.55,0,0,1-6,0,6.8,6.8,0,0,1-4.22-3.71,7.44,7.44,0,0,1-.64-3.1,7.63,7.63,0,0,1,.64-3.12,6.84,6.84,0,0,1,4.22-3.71,9.55,9.55,0,0,1,6,0,6.91,6.91,0,0,1,4.23,3.71,7.79,7.79,0,0,1,.62,3.12,7.66,7.66,0,0,1-.62,3.1A6.87,6.87,0,0,1,954.07,470.48ZM948.92,466a3.05,3.05,0,0,0,4.31,0,3.2,3.2,0,0,0,.87-2.35,3.27,3.27,0,0,0-.87-2.37,3.08,3.08,0,0,0-4.31,0,3.27,3.27,0,0,0-.87,2.37A3.2,3.2,0,0,0,948.92,466Z" transform="translate(-880.21 -412.48)"/><path class="cls-14" d="M976.05,471a6.66,6.66,0,0,1-2.71-.5,3.38,3.38,0,0,1-1.67-1.42v6.84h-4.83V456.59h4.61l.22,1.68a3.24,3.24,0,0,1,1.64-1.43,6.67,6.67,0,0,1,2.74-.5,6,6,0,0,1,4.63,2.05,7.53,7.53,0,0,1,1.86,5.28,7.45,7.45,0,0,1-1.86,5.26A6,6,0,0,1,976.05,471Zm.8-9.68a3.08,3.08,0,0,0-4.31,0,3.27,3.27,0,0,0-.87,2.37,3.2,3.2,0,0,0,.87,2.35,3.05,3.05,0,0,0,4.31,0,3.67,3.67,0,0,0,0-4.72Z" transform="translate(-880.21 -412.48)"/><path class="cls-15" d="M990.55,456.34a6.69,6.69,0,0,1,2.71.51,3.41,3.41,0,0,1,1.66,1.42l.23-1.68h4.6v14.16h-4.6l-.23-1.69a3.21,3.21,0,0,1-1.63,1.43,6.92,6.92,0,0,1-2.74.49,6,6,0,0,1-4.63-2.05,7.45,7.45,0,0,1-1.86-5.26,7.53,7.53,0,0,1,1.86-5.28A6,6,0,0,1,990.55,456.34Zm-.8,9.68a3,3,0,0,0,4.3,0,3.2,3.2,0,0,0,.87-2.35,3.27,3.27,0,0,0-.87-2.37,2.92,2.92,0,0,0-2.15-.88,2.89,2.89,0,0,0-2.15.88,3.26,3.26,0,0,0-.86,2.37A3.2,3.2,0,0,0,989.75,466Z" transform="translate(-880.21 -412.48)"/><path class="cls-16" d="M1002,470.75V456.59h4.6l.22,1.57q1.17-1.8,4.36-1.81v4.07q-4.37,0-4.36,3.25v7.08Z" transform="translate(-880.21 -412.48)"/><path class="cls-17" d="M1018.19,456.34a6.62,6.62,0,0,1,2.71.51,3.43,3.43,0,0,1,1.67,1.42l.22-1.68h4.61v14.16h-4.61l-.22-1.69a3.2,3.2,0,0,1-1.64,1.43,6.85,6.85,0,0,1-2.74.49,6,6,0,0,1-4.62-2.05,7.45,7.45,0,0,1-1.86-5.26,7.53,7.53,0,0,1,1.86-5.28A6,6,0,0,1,1018.19,456.34Zm-.79,9.68a3,3,0,0,0,4.3,0,3.2,3.2,0,0,0,.87-2.35,3.27,3.27,0,0,0-.87-2.37,2.92,2.92,0,0,0-2.15-.88,2.87,2.87,0,0,0-2.15.88,3.27,3.27,0,0,0-.87,2.37A3.2,3.2,0,0,0,1017.4,466Z" transform="translate(-880.21 -412.48)"/><path class="cls-18" d="M897.29,482v-3.15h4.82V482h3.16v3.74h-3.16v4.88a1.43,1.43,0,0,0,1,1.56,4.4,4.4,0,0,0,2.2.06v3.94a19.11,19.11,0,0,1-2.8.2,5,5,0,0,1-4-1.36,6.18,6.18,0,0,1-1.21-4.22v-5.06h-1.71V482Z" transform="translate(-880.21 -412.48)"/><path class="cls-19" d="M907.31,482h4.83v7.08a4.34,4.34,0,0,0,.55,2.44,2,2,0,0,0,1.75.8,2.3,2.3,0,0,0,1.92-.85,3.74,3.74,0,0,0,.67-2.39V482h4.83v14.16h-4.62l-.21-1.69a3.42,3.42,0,0,1-1.63,1.42,6.22,6.22,0,0,1-2.64.5,4.67,4.67,0,0,1-4.18-1.86,9.65,9.65,0,0,1-1.27-5.45Z" transform="translate(-880.21 -412.48)"/><path class="cls-20" d="M943,486l-4.83.25a1.39,1.39,0,0,0-.48-.91,1.52,1.52,0,0,0-1-.36,2.15,2.15,0,0,0-1.15.26.86.86,0,0,0-.41.76.81.81,0,0,0,.45.72,4.92,4.92,0,0,0,1.35.49c1,.24,1.78.45,2.41.64a12.26,12.26,0,0,1,1.81.68,4.5,4.5,0,0,1,1.32.81,3,3,0,0,1,.91,2.43,4.13,4.13,0,0,1-1.77,3.43,8.52,8.52,0,0,1-4.88,1.17,8.68,8.68,0,0,1-4.9-1.18,4,4,0,0,1-1.84-3.36l4.81-.35a1.64,1.64,0,0,0,.63,1.13,2,2,0,0,0,1.3.43,2.5,2.5,0,0,0,1.3-.3.93.93,0,0,0,.49-.83c0-.37-.26-.7-.78-1a8.16,8.16,0,0,0-1.94-.69c-.94-.23-1.55-.39-1.81-.47a11.47,11.47,0,0,1-1.4-.47,4.59,4.59,0,0,1-1.07-.57,3.2,3.2,0,0,1-1.22-2.84,3.41,3.41,0,0,1,1.69-3.08,9.11,9.11,0,0,1,4.81-1.05,8,8,0,0,1,4.52,1.1A3.79,3.79,0,0,1,943,486Z" transform="translate(-880.21 -412.48)"/><path class="cls-21" d="M955.3,495.88a9.55,9.55,0,0,1-6,0,6.76,6.76,0,0,1-4.21-3.71,7.29,7.29,0,0,1-.65-3.1,7.45,7.45,0,0,1,.65-3.12,6.82,6.82,0,0,1,4.21-3.71,9.55,9.55,0,0,1,6,0,6.91,6.91,0,0,1,4.23,3.71,7.63,7.63,0,0,1,.63,3.12,7.5,7.5,0,0,1-.63,3.1A6.85,6.85,0,0,1,955.3,495.88Zm-5.15-4.46a3.05,3.05,0,0,0,4.31,0,3.2,3.2,0,0,0,.87-2.35,3.27,3.27,0,0,0-.87-2.37,3.08,3.08,0,0,0-4.31,0,3.27,3.27,0,0,0-.87,2.37A3.2,3.2,0,0,0,950.15,491.42Z" transform="translate(-880.21 -412.48)"/><path class="cls-22" d="M976.32,496.15h-4.81v-7.08a4.4,4.4,0,0,0-.55-2.44,2,2,0,0,0-1.75-.81,2.36,2.36,0,0,0-1.93.85,3.79,3.79,0,0,0-.67,2.4v7.08h-4.83V482h4.6l.23,1.68a3.49,3.49,0,0,1,1.62-1.42,6.3,6.3,0,0,1,2.65-.51,4.69,4.69,0,0,1,4.19,1.86,9.77,9.77,0,0,1,1.25,5.47Z" transform="translate(-880.21 -412.48)"/><path class="cls-23" d="M978.46,496.15V482h4.6l.23,1.57q1.17-1.8,4.35-1.81v4.07q-4.35,0-4.35,3.25v7.08Z" transform="translate(-880.21 -412.48)"/><path class="cls-24" d="M991.69,480.54a2.62,2.62,0,0,1-2-.83,2.74,2.74,0,0,1,0-3.91,2.69,2.69,0,0,1,2-.82,2.76,2.76,0,0,1,2,.82,2.79,2.79,0,0,1-2,4.74Zm-2.42,15.61V482h4.83v14.16Z" transform="translate(-880.21 -412.48)"/><path class="cls-25" d="M1008.76,486l-4.82.25a1.48,1.48,0,0,0-.48-.91,1.52,1.52,0,0,0-1-.36,2.15,2.15,0,0,0-1.15.26.84.84,0,0,0-.41.76.82.82,0,0,0,.44.72,5.14,5.14,0,0,0,1.36.49c1,.24,1.78.45,2.41.64a12.26,12.26,0,0,1,1.81.68,4.64,4.64,0,0,1,1.32.81,3,3,0,0,1,.91,2.43,4.13,4.13,0,0,1-1.77,3.43,8.53,8.53,0,0,1-4.89,1.17,8.67,8.67,0,0,1-4.89-1.18,4,4,0,0,1-1.84-3.36l4.81-.35a1.67,1.67,0,0,0,.62,1.13,2,2,0,0,0,1.3.43,2.54,2.54,0,0,0,1.31-.3.93.93,0,0,0,.49-.83c0-.37-.26-.7-.78-1a8.09,8.09,0,0,0-2-.69c-.93-.23-1.54-.39-1.81-.47a11.9,11.9,0,0,1-1.39-.47,4.4,4.4,0,0,1-1.07-.57,3.18,3.18,0,0,1-1.22-2.84,3.42,3.42,0,0,1,1.68-3.08,9.17,9.17,0,0,1,4.82-1.05,7.9,7.9,0,0,1,4.51,1.1A3.79,3.79,0,0,1,1008.76,486Z" transform="translate(-880.21 -412.48)"/><path class="cls-26" d="M1016.76,481.74a6.65,6.65,0,0,1,2.71.51,3.36,3.36,0,0,1,1.66,1.42l.23-1.68h4.6v14.16h-4.6l-.23-1.69a3.17,3.17,0,0,1-1.63,1.43,6.88,6.88,0,0,1-2.74.49,6,6,0,0,1-4.63-2.05,7.45,7.45,0,0,1-1.86-5.26,7.53,7.53,0,0,1,1.86-5.28A6,6,0,0,1,1016.76,481.74Zm-.79,9.68a2.86,2.86,0,0,0,2.15.89,2.9,2.9,0,0,0,2.15-.89,3.2,3.2,0,0,0,.86-2.35,3.26,3.26,0,0,0-.86-2.37,2.93,2.93,0,0,0-2.15-.88,2.87,2.87,0,0,0-2.15.88,3.27,3.27,0,0,0-.87,2.37A3.2,3.2,0,0,0,1016,491.42Z" transform="translate(-880.21 -412.48)"/><path class="cls-27" d="M912.51,521.78a6.66,6.66,0,0,1-2.71-.5,3.38,3.38,0,0,1-1.67-1.42v6.84h-4.82V507.39h4.6l.22,1.68a3.24,3.24,0,0,1,1.64-1.43,6.71,6.71,0,0,1,2.74-.5,6,6,0,0,1,4.63,2.05,8.4,8.4,0,0,1,0,10.54A6,6,0,0,1,912.51,521.78Zm.8-9.68a2.9,2.9,0,0,0-2.14-.88,3,3,0,0,0-2.17.88,3.27,3.27,0,0,0-.87,2.37,3.2,3.2,0,0,0,.87,2.35,2.92,2.92,0,0,0,2.17.89,2.87,2.87,0,0,0,2.14-.89,3.23,3.23,0,0,0,.86-2.35A3.26,3.26,0,0,0,913.31,512.1Z" transform="translate(-880.21 -412.48)"/><path class="cls-28" d="M928.36,507.14a7.59,7.59,0,0,1,5.75,2.21,6.61,6.61,0,0,1,1.55,2.75,9.85,9.85,0,0,1,.34,3.66H925.51a3.15,3.15,0,0,0,1.09,1.65,2.78,2.78,0,0,0,1.76.6,2.91,2.91,0,0,0,2.7-1.7l4.09,2a6.81,6.81,0,0,1-2.82,2.57,8.74,8.74,0,0,1-4,.91,8.26,8.26,0,0,1-5.49-1.88,6.39,6.39,0,0,1-1.73-2.34,8,8,0,0,1,0-6.19,6.34,6.34,0,0,1,1.73-2.35A8.28,8.28,0,0,1,928.36,507.14Zm1.85,4.35a3.22,3.22,0,0,0-3.69,0,3,3,0,0,0-1,1.67h5.74A3,3,0,0,0,930.21,511.49Z" transform="translate(-880.21 -412.48)"/><path class="cls-29" d="M937.67,521.54V507.39h4.6l.23,1.57q1.17-1.8,4.35-1.81v4.07q-4.35,0-4.35,3.25v7.07Z" transform="translate(-880.21 -412.48)"/><path class="cls-30" d="M954.88,507.39h3.17v3.74h-3.17v10.41h-4.81V511.13h-1.71v-3.74h1.71V507a4.39,4.39,0,0,1,5.18-5.12,21.4,21.4,0,0,1,2.8.21v3.41a4.17,4.17,0,0,0-2.26,0c-.61.16-.91.65-.91,1.47Z" transform="translate(-880.21 -412.48)"/><path class="cls-31" d="M966.54,507.14a7.59,7.59,0,0,1,5.74,2.21,6.63,6.63,0,0,1,1.56,2.75,9.86,9.86,0,0,1,.33,3.66H963.68a3.15,3.15,0,0,0,1.09,1.65,2.81,2.81,0,0,0,1.77.6,2.9,2.9,0,0,0,2.69-1.7l4.1,2a6.9,6.9,0,0,1-2.83,2.57,8.73,8.73,0,0,1-4,.91,8.28,8.28,0,0,1-5.5-1.88,6.39,6.39,0,0,1-1.73-2.34,8,8,0,0,1,0-6.19A6.34,6.34,0,0,1,961,509,8.29,8.29,0,0,1,966.54,507.14Zm1.84,4.35a3.22,3.22,0,0,0-3.69,0,3,3,0,0,0-1,1.67h5.74A3,3,0,0,0,968.38,511.49Z" transform="translate(-880.21 -412.48)"/><path class="cls-32" d="M983.57,517.81a2.65,2.65,0,0,0,2.68-2l4.41,1.77a6.42,6.42,0,0,1-2.76,3,8.5,8.5,0,0,1-4.33,1.12,8.2,8.2,0,0,1-5.48-1.89,6.23,6.23,0,0,1-1.73-2.32,7.92,7.92,0,0,1,0-6.19,6.31,6.31,0,0,1,1.73-2.34,8.32,8.32,0,0,1,5.48-1.88,8.5,8.5,0,0,1,4.33,1.12,6.45,6.45,0,0,1,2.76,3l-4.41,1.76a2.83,2.83,0,0,0-1-1.45,2.79,2.79,0,0,0-1.64-.5,2.85,2.85,0,0,0-2.15.91,3.82,3.82,0,0,0,0,4.88A2.88,2.88,0,0,0,983.57,517.81Z" transform="translate(-880.21 -412.48)"/><path class="cls-33" d="M993.44,507.39v-3.15h4.82v3.15h3.17v3.74h-3.17V516a1.42,1.42,0,0,0,1,1.56,4.38,4.38,0,0,0,2.2.06v3.94a19.25,19.25,0,0,1-2.81.2,5,5,0,0,1-4-1.36,6.18,6.18,0,0,1-1.21-4.22v-5.06h-1.71v-3.74Z" transform="translate(-880.21 -412.48)"/><path class="cls-34" d="M1009,507.14a6.62,6.62,0,0,1,2.71.51,3.34,3.34,0,0,1,1.67,1.42l.23-1.68h4.6v14.15h-4.6l-.23-1.68a3.2,3.2,0,0,1-1.64,1.43,6.85,6.85,0,0,1-2.74.49,6,6,0,0,1-4.62-2,8.4,8.4,0,0,1,0-10.54A6,6,0,0,1,1009,507.14Zm-.79,9.68a3,3,0,0,0,4.3,0,3.2,3.2,0,0,0,.87-2.35,3.27,3.27,0,0,0-.87-2.37,2.92,2.92,0,0,0-2.15-.88,2.87,2.87,0,0,0-2.15.88,3.27,3.27,0,0,0-.87,2.37A3.2,3.2,0,0,0,1008.24,516.82Z" transform="translate(-880.21 -412.48)"/></svg>