<svg id="Capa_1" data-name="Capa 1" xmlns="http://www.w3.org/2000/svg" viewBox="0 0 791.39 269.07"><defs><style>.cls-1,.cls-4{fill:red;}.cls-2{font-size:33.12px;fill:#22deaa;font-family:Altair-Bold, Altair;font-weight:700;letter-spacing:-0.04em;}.cls-3{fill:#22d19c;}.cls-4{font-size:98.42px;font-family:SweetyStrawberry, Sweety Strawberry;letter-spacing:0.02em;}</style></defs><rect class="cls-1" x="323.81" y="0.26" width="51.89" height="18.82"/><text class="cls-2" transform="translate(626.8 48.36)">®</text><path class="cls-3" d="M652.64,464.14a75.59,75.59,0,0,1-13.93,3.24,63.19,63.19,0,0,1-6.64.33q-8.57,0-13.21-3.73c-3.09-2.49-5.19-9.66-5.13-16.19l52.92-.49c.11-.67.27-2.27.48-4.82s.32-5.31.32-8.3c0-2.43-.05-4.28-.16-5.55q-.79-16-10.57-23.53t-26.17-7.51q-14.49,0-23.18,4.69a27.16,27.16,0,0,0-12.52,14.11Q591,425.81,591,440.57q0,15.29,3.48,25.14c-.69.36-1.44.72-2.29,1.09a18.6,18.6,0,0,1-7.44,1.86q-4.29,0-5.84-4.49t-1.63-14.31v-81l-22.52,7.61v31a33.23,33.23,0,0,0-9.07-5.82,26.22,26.22,0,0,0-10.82-2.43q-17.1,0-24.46,11.79t-7.36,32q0,17.57,6,31.26T531.85,488c1.27,0,2.23,0,2.86-.08a24.23,24.23,0,0,0,13.09-4.25,33.94,33.94,0,0,0,9.51-10.27q5,14.52,20.84,14.52a28.29,28.29,0,0,0,13.37-3.67,37.93,37.93,0,0,0,9.61-7.27,27.07,27.07,0,0,0,6.08,4.79q8.61,5,23,5a58.42,58.42,0,0,0,15.65-2.16,78,78,0,0,0,13.77-5.1,36.62,36.62,0,0,0,8.44-5.27l-3.44-14.35Q660,461.74,652.64,464.14Zm-33.86-44.06q4-4.15,11.45-4.15,15,0,15,13.28c0,1,0,1.74-.08,2.24l-31,0C614.59,425.77,616.11,422.85,618.78,420.08Zm-64,38.19a22.51,22.51,0,0,1-6.56,7.09,14.53,14.53,0,0,1-8.48,2.89l-1.19-.08q-6.45-.82-9.67-7.55a39.15,39.15,0,0,1-3.38-16.29A51.68,51.68,0,0,1,526.8,433a25.14,25.14,0,0,1,4.65-10.14,10.89,10.89,0,0,1,9.07-4.29q8,0,14.24,6.84Z" transform="translate(-503.05 -368.86)"/><path class="cls-3" d="M952.16,442.23q-8-6.89-21.7-9.79Q922.71,431,919,428.79a6.75,6.75,0,0,1-3.68-6.14q0-5.89,11-5.89a72.66,72.66,0,0,1,8.49.58q5.36,1,10.52,2.45c3.45,1,4.46,2,4.28,1.67l2.24-18.09a32.94,32.94,0,0,0-8.24-3.66,56.07,56.07,0,0,0-15.85-2.12q-13.92,0-23.25,4.86a20.35,20.35,0,0,0-11.17,15.3A29.84,29.84,0,0,0,893,423a24,24,0,0,0,5.61,16q5.6,6.63,15.76,9.37l3.37.84q6.48,1.57,10.2,2.77a21,21,0,0,1,6.25,3.12,5.66,5.66,0,0,1,2.52,4.64,6.19,6.19,0,0,1-3.68,6q-3.69,1.78-10.49,1.78a58.15,58.15,0,0,1-15.81-2.65c-6.11-1.77-11-3.74-14.24-6.06-3.1,1.27-13,3.71-17.93,5.31a75.77,75.77,0,0,1-13.93,3.24,63.38,63.38,0,0,1-6.65.33q-8.57,0-13.2-3.73c-3.1-2.49-5.15-9.66-5.1-16.19l53.64-.52a27.52,27.52,0,0,0,.19-5.69c-.11-2.55-.14-4.41-.14-7.4,0-2.43-.06-4.28-.17-5.55q-.8-16-10.56-23.53t-26.18-7.51a58.27,58.27,0,0,0-17.22,2.26l0-.27H784.93V370.15l-22.73,6v23.48H749.09l6,19.34h7.07l.08,34.68v2.24q0,13.44,5.2,22.16c3.47,5.81,10.09,9.71,18.78,9.71,4.38,0,13.78-1.63,18.13-4,4.19-2.23,7.52-3.15,15.66-10.55a27,27,0,0,0,9.08,8.53q8.6,5,23,5a58.42,58.42,0,0,0,15.65-2.16,85.79,85.79,0,0,0,9.58-3.24c-6,39.14-26.61,58.27-62.76,58.27-1.17,0-2.37,0-3.57-.06-38.85-1.3-62.5-30.72-61.73-76.77h-.21c-.2-5.16-1.21-31.94-1.21-31.94q0-17.18-6.32-26T720.67,396a26.47,26.47,0,0,0-11.28,2.49,44.56,44.56,0,0,0-9,5.43c-2.45,2-3.68,3.14-3.68,3.53V397l-22.57,2.24v83.81h22.57V422.83a11.92,11.92,0,0,1,2.24-2.24,25.32,25.32,0,0,1,5.64-3.65,16.77,16.77,0,0,1,7.41-1.66q7.37,0,10.33,5.31t3,16.52l1.45,38.6a3,3,0,0,0,.89,2.36c4.81,49.23,36.64,82.24,82.71,83.79,1.44,0,2.88.07,4.3.07,48.23,0,78-28.08,85.2-79.88a71,71,0,0,0,17.55,4.16,65.13,65.13,0,0,0,8.24.5,53.78,53.78,0,0,0,17-2.57,26.77,26.77,0,0,0,12.69-8.63q4.92-6.06,4.92-15.93A22,22,0,0,0,952.16,442.23ZM840.7,420.08q4-4.15,11.44-4.15,15.06,0,15.05,13.28c0,1,0,1.74-.08,2.24l-30.76.1C836.72,425.9,838,422.85,840.7,420.08Zm-41.2,45.64a17.78,17.78,0,0,1-7.12,1.66,5.39,5.39,0,0,1-4.73-2.33,15.39,15.39,0,0,1-2.16-6.76,99.52,99.52,0,0,1-.56-11.82v-.67l-.08-26.88h31q-2.91,8.81-2.91,21.65a100.16,100.16,0,0,0,1,15.11C807,461.15,802,464.62,799.5,465.72Z" transform="translate(-503.05 -368.86)"/><path class="cls-3" d="M1023.58,387.49q3.55,2.79,10,2.78,6.33,0,9.85-2.82a10.17,10.17,0,0,0,0-15.39q-3.53-2.79-9.85-2.78-6.48,0-10,2.82a9.29,9.29,0,0,0-3.56,7.72A9.17,9.17,0,0,0,1023.58,387.49Z" transform="translate(-503.05 -368.86)"/><path class="cls-3" d="M1108.76,447.79c-.48,7.11-1.92,11.43-4.32,14.69s-6.19,4.9-11.37,4.9q-9,0-12.4-6.89t-3.45-18.42a62.67,62.67,0,0,1,1.12-12.53,17.7,17.7,0,0,1,4.65-9q3.52-3.62,10.16-3.62,7.21,0,10.85,4.61t4.68,12.65H1131q0-21.31-11.25-29t-26.62-7.67a54.43,54.43,0,0,0-19.49,3.23q-8.45,3.24-13.77,12.33t-5.32,25.6v6.8c0,8.27,1,15.09,2.92,20.54a13.13,13.13,0,0,1-4.81,1.37,5.49,5.49,0,0,1-4.77-2.33,15.11,15.11,0,0,1-2.2-6.76,99.52,99.52,0,0,1-.56-11.82V399.72l-3.4,0v-.12H991.42V370.15l-22.73,6v23.48H958.23l-2,19.34h12.44l.08,34.68v2.24q0,13.44,5.2,22.16c3.47,5.81,10.09,9.71,18.79,9.71,4.37,0,13.77-1.63,18.12-4,4-2.15,7.27-3.08,14.8-9.77a23.46,23.46,0,0,0,5.42,7.84q5.18,4.89,14.77,4.89c4.38,0,9.39-.57,13.76-2.9a70.73,70.73,0,0,0,7.28-4.14,23,23,0,0,0,7.87,4.43,60.17,60.17,0,0,0,18.29,2.61c25.46,0,38.19-12.42,38.19-39ZM1006,465.72a17.78,17.78,0,0,1-7.12,1.66,5.36,5.36,0,0,1-4.72-2.33,15.39,15.39,0,0,1-2.17-6.76,99.52,99.52,0,0,1-.56-11.82v-.67l-.08-26.88h31.16v33.69c0,.49,0,.95,0,1.43C1015.52,459.58,1008.49,464.61,1006,465.72Z" transform="translate(-503.05 -368.86)"/><text class="cls-4" transform="translate(307.08 223.09) rotate(-1.09)">Sonríe siempre</text></svg>